<svg height='100px' width='100px'  fill="#000000" xmlns:dc="http://purl.org/dc/elements/1.1/" xmlns:cc="http://creativecommons.org/ns#" xmlns:rdf="http://www.w3.org/1999/02/22-rdf-syntax-ns#" xmlns:svg="http://www.w3.org/2000/svg" xmlns="http://www.w3.org/2000/svg" xmlns:sodipodi="http://sodipodi.sourceforge.net/DTD/sodipodi-0.dtd" xmlns:inkscape="http://www.inkscape.org/namespaces/inkscape" version="1.1" x="0px" y="0px" viewBox="0 0 100 100"><g transform="translate(0,-952.36218)"><path style="text-indent:0;text-transform:none;direction:ltr;block-progression:tb;baseline-shift:baseline;color:#000000;enable-background:accumulate;" d="m 50,977.06526 c -17.64943,0 -32,14.3507 -32,31.99994 0,6.9222 2.22054,13.3532 5.96875,18.5939 l 3.125,-2.4688 C 23.89105,1020.6372 22,1015.0666 22,1009.0652 c 0,-15.48754 12.51235,-27.99994 28,-27.99994 15.48765,0 28,12.5124 28,27.99994 0,6.0014 -1.89105,11.572 -5.09375,16.1251 l 3.125,2.4688 C 79.77946,1022.4184 82,1015.9874 82,1009.0652 82,991.41596 67.64943,977.06526 50,977.06526 z m 12.5,17.3438 -13.875,16.84364 c -1.20248,0.3445 -2.29395,1.1437 -2.96875,2.3125 -1.38075,2.3915 -0.54771,5.463 1.84375,6.8438 2.39147,1.3807 5.463,0.5477 6.84375,-1.8438 0.6748,-1.1688 0.80287,-2.5051 0.5,-3.7188 L 62.5,994.40906 z" fill="#000000" fill-opacity="1" stroke="none" marker="none" visibility="visible" display="inline" overflow="visible"></path></g></svg>