<svg height='100px' width='100px'  fill="#000000" xmlns="http://www.w3.org/2000/svg" xmlns:xlink="http://www.w3.org/1999/xlink" viewBox="0 0 60 45" version="1.1" x="0px" y="0px"><title>74 -Ethernet Port- (Outline)</title><desc>Created with Sketch.</desc><g stroke="none" stroke-width="1" fill="none" fill-rule="evenodd"><g transform="translate(-478.000000, -1199.000000)" fill="#000000"><g transform="translate(478.000000, 1199.000000)"><path d="M57,42.0038 L3,42.0038 C2.44828475,42.0038 2,41.5555153 2,41.0038 L2,3.0038 C2,2.45208475 2.44828475,2.0038 3,2.0038 L57,2.0038 C57.5517153,2.0038 58,2.45208475 58,3.0038 L58,41.0038 C58,41.5555153 57.5517153,42.0038 57,42.0038 Z M57,44.0038 C58.6562847,44.0038 60,42.6600847 60,41.0038 L60,3.0038 C60,1.34751525 58.6562847,0.0038 57,0.0038 L3,0.0038 C1.34371525,0.0038 0,1.34751525 0,3.0038 L0,41.0038 C0,42.6600847 1.34371525,44.0038 3,44.0038 L57,44.0038 Z"></path><path d="M15,32.0038 C15,32.5560847 15.4477153,33.0038 16,33.0038 L22,33.0038 L22,36.0038 C22,36.5560847 22.4477153,37.0038 23,37.0038 L37,37.0038 C37.5522847,37.0038 38,36.5560847 38,36.0038 L38,33.0038 L44,33.0038 C44.5522847,33.0038 45,32.5560847 45,32.0038 L45,28.0038 L50,28.0038 C50.5522847,28.0038 51,27.5560847 51,27.0038 L51,8.0038 C51,7.45151525 50.5522847,7.0038 50,7.0038 L10,7.0038 C9.44771525,7.0038 9,7.45151525 9,8.0038 L9,27.0038 C9,27.5560847 9.44771525,28.0038 10,28.0038 L15,28.0038 L15,32.0038 Z M49,9.0038 L49,26.0038 L44,26.0038 C43.4477153,26.0038 43,26.4515153 43,27.0038 L43,31.0038 L37,31.0038 C36.4477153,31.0038 36,31.4515153 36,32.0038 L36,35.0038 L24,35.0038 L24,32.0038 C24,31.4515153 23.5522847,31.0038 23,31.0038 L17,31.0038 L17,27.0038 C17,26.4515153 16.5522847,26.0038 16,26.0038 L11,26.0038 L11,9.0038 L49,9.0038 Z"></path><path d="M31,11.0038 L31,8.0038 C31,7.45151525 30.5522847,7.0038 30,7.0038 C29.4477153,7.0038 29,7.45151525 29,8.0038 L29,11.0038 C29,11.5560847 29.4477153,12.0038 30,12.0038 C30.5522847,12.0038 31,11.5560847 31,11.0038 Z"></path><path d="M27,11.0038 L27,8.0038 C27,7.45151525 26.5522847,7.0038 26,7.0038 C25.4477153,7.0038 25,7.45151525 25,8.0038 L25,11.0038 C25,11.5560847 25.4477153,12.0038 26,12.0038 C26.5522847,12.0038 27,11.5560847 27,11.0038 Z"></path><path d="M39,11.0038 L39,8.0038 C39,7.45151525 38.5522847,7.0038 38,7.0038 C37.4477153,7.0038 37,7.45151525 37,8.0038 L37,11.0038 C37,11.5560847 37.4477153,12.0038 38,12.0038 C38.5522847,12.0038 39,11.5560847 39,11.0038 Z"></path><path d="M35,11.0038 L35,8.0038 C35,7.45151525 34.5522847,7.0038 34,7.0038 C33.4477153,7.0038 33,7.45151525 33,8.0038 L33,11.0038 C33,11.5560847 33.4477153,12.0038 34,12.0038 C34.5522847,12.0038 35,11.5560847 35,11.0038 Z"></path><path d="M15,11.0038 L15,8.0038 C15,7.45151525 14.5522847,7.0038 14,7.0038 C13.4477153,7.0038 13,7.45151525 13,8.0038 L13,11.0038 C13,11.5560847 13.4477153,12.0038 14,12.0038 C14.5522847,12.0038 15,11.5560847 15,11.0038 Z"></path><path d="M23,11.0038 L23,8.0038 C23,7.45151525 22.5522847,7.0038 22,7.0038 C21.4477153,7.0038 21,7.45151525 21,8.0038 L21,11.0038 C21,11.5560847 21.4477153,12.0038 22,12.0038 C22.5522847,12.0038 23,11.5560847 23,11.0038 Z"></path><path d="M19,11.0038 L19,8.0038 C19,7.45151525 18.5522847,7.0038 18,7.0038 C17.4477153,7.0038 17,7.45151525 17,8.0038 L17,11.0038 C17,11.5560847 17.4477153,12.0038 18,12.0038 C18.5522847,12.0038 19,11.5560847 19,11.0038 Z"></path><path d="M43,11.0038 L43,8.0038 C43,7.45151525 42.5522847,7.0038 42,7.0038 C41.4477153,7.0038 41,7.45151525 41,8.0038 L41,11.0038 C41,11.5560847 41.4477153,12.0038 42,12.0038 C42.5522847,12.0038 43,11.5560847 43,11.0038 Z"></path><path d="M47,11.0038 L47,8.0038 C47,7.45151525 46.5522847,7.0038 46,7.0038 C45.4477153,7.0038 45,7.45151525 45,8.0038 L45,11.0038 C45,11.5560847 45.4477153,12.0038 46,12.0038 C46.5522847,12.0038 47,11.5560847 47,11.0038 Z"></path></g></g></g></svg>