<svg height='100px' width='100px'  fill="#000000" xmlns:dc="http://purl.org/dc/elements/1.1/" xmlns:cc="http://creativecommons.org/ns#" xmlns:rdf="http://www.w3.org/1999/02/22-rdf-syntax-ns#" xmlns:svg="http://www.w3.org/2000/svg" xmlns="http://www.w3.org/2000/svg" xmlns:sodipodi="http://sodipodi.sourceforge.net/DTD/sodipodi-0.dtd" xmlns:inkscape="http://www.inkscape.org/namespaces/inkscape" version="1.1" x="0px" y="0px" viewBox="0 0 100 100"><g transform="translate(0,-952.36218)"><path style="text-indent:0;text-transform:none;direction:ltr;block-progression:tb;baseline-shift:baseline;color:#000000;enable-background:accumulate;" d="m 49.9688,960.36216 c -10.96947,0 -19.96875,8.5747 -19.96875,19.75 0,2.70575 0.658631,6.17486 1.5625,8.5625 5.516711,11.50484 11.081361,23.02564 16.625,34.53124 0.3198,0.6852 1.05635,1.1563 1.8125,1.1563 0.756151,0 1.4927,-0.4711 1.8125,-1.1563 5.47702,-11.5363 11.19461,-22.9868 16.625,-34.53124 0.910629,-2.3931 1.5625,-5.85836 1.5625,-8.5625 0,-11.18122 -9.061679,-19.75 -20.03125,-19.75 z m 0,4 c 8.91458,0 16.03125,6.69882 16.03125,15.75 0,1.92786 -0.67286,5.35263 -1.3125,7.0625 -4.848489,10.19466 -9.78483,20.38164 -14.6875,30.56254 -4.728809,-10.2583 -10.069119,-20.27015 -14.6875,-30.56254 -0.63795,-1.71387 -1.3125,-5.13822 -1.3125,-7.0625 0,-9.0571 7.0543,-15.75 15.96875,-15.75 z m 0.0312,4 c -6.603629,0 -12,5.39629 -12,12 0,6.60362 5.39634,12 12,12 6.60378,0 12,-5.39642 12,-12 0,-6.60367 -5.396249,-12 -12,-12 z m 0,4 c 4.44197,0 8,3.55811 8,8 0,4.44176 -3.55806,8 -8,8 -4.44176,0 -8,-3.55828 -8,-8 0,-4.44185 3.558211,-8 8,-8 z m -36,28.00004 c -1.13007,-0 -1.61563,0.6214 -1.96875,1.6875 l -5.9999995,40 c -0.17949,1.1354 0.81923,2.3085 1.96875,2.3125 l 83.9999995,0 c 1.149519,0 2.14824,-1.1771 1.96875,-2.3125 l -6,-40 c -0.147001,-0.9288 -1.028401,-1.6843 -1.96875,-1.6875 l -20.96875,0 -1.9375,4 21.1875,0 1.1875,8 -25.90625,0 c 0.5333,-0.8305 -1.64427,2.7575 -2.125,3.75 l 19.40625,24.25 -29.875,0 -12.4375,-15.5625 8.6875,-7.3438 -1.78125,-3.6875 -9.40625,7.9375 -13.875,-17.3437 18.75,0 -1.9375,-4 -20.96875,0 z m 1.28125,6.8125 26.5625,33.1875 -31.53125,0 4.96875,-33.1875 z m 47.46875,9.1875 23.34375,0 1.5,10 -16.84375,0 -8,-10 z m 11.21875,14 14.21875,0 1.5,10 -7.71875,0 -8,-10 z" fill="#000000" fill-opacity="1" stroke="none" marker="none" visibility="visible" display="inline" overflow="visible"></path></g></svg>