<svg height='100px' width='100px'  fill="#000000" xmlns="http://www.w3.org/2000/svg" xmlns:xlink="http://www.w3.org/1999/xlink" version="1.1" x="0px" y="0px" viewBox="0 0 52 52" style="enable-background:new 0 0 52 52;" xml:space="preserve"><g><path d="M49,22h-9V5c0-1.7-1.3-3-3-3H5C3.3,2,2,3.3,2,5v38.8C2,47.2,4.8,50,8.2,50H44c3.3,0,6-2.7,6-6V23C50,22.4,49.6,22,49,22z    M8.2,48C5.9,48,4,46.1,4,43.8V5c0-0.6,0.4-1,1-1h32c0.6,0,1,0.4,1,1v18c0,21.3-0.6,22.6,1.5,25H8.2z M48,44c0,2.2-1.8,4-4,4   s-4-1.8-4-4V24h8V44z"></path><path d="M9,20h8c0.6,0,1-0.4,1-1V9c0-0.6-0.4-1-1-1H9C8.4,8,8,8.4,8,9v10C8,19.6,8.4,20,9,20z M10,10h6v8h-6V10z"></path><path d="M33,13H23c-0.6,0-1,0.4-1,1s0.4,1,1,1h10c0.6,0,1-0.4,1-1S33.6,13,33,13z"></path><path d="M19,24H9c-0.6,0-1,0.4-1,1s0.4,1,1,1h10c0.6,0,1-0.4,1-1S19.6,24,19,24z"></path><path d="M33,24H23c-0.6,0-1,0.4-1,1s0.4,1,1,1h10c0.6,0,1-0.4,1-1S33.6,24,33,24z"></path><path d="M19,30H9c-0.6,0-1,0.4-1,1s0.4,1,1,1h10c0.6,0,1-0.4,1-1S19.6,30,19,30z"></path><path d="M33,30H23c-0.6,0-1,0.4-1,1s0.4,1,1,1h10c0.6,0,1-0.4,1-1S33.6,30,33,30z"></path><path d="M19,36H9c-0.6,0-1,0.4-1,1s0.4,1,1,1h10c0.6,0,1-0.4,1-1S19.6,36,19,36z"></path><path d="M33,36H23c-0.6,0-1,0.4-1,1s0.4,1,1,1h10c0.6,0,1-0.4,1-1S33.6,36,33,36z"></path><path d="M19,42H9c-0.6,0-1,0.4-1,1s0.4,1,1,1h10c0.6,0,1-0.4,1-1S19.6,42,19,42z"></path><path d="M33,42H23c-0.6,0-1,0.4-1,1s0.4,1,1,1h10c0.6,0,1-0.4,1-1S33.6,42,33,42z"></path></g></svg>