<?xml version="1.0" encoding="utf-8"?>
<!-- Generator: Adobe Illustrator 23.0.1, SVG Export Plug-In . SVG Version: 6.00 Build 0)  -->
<svg version="1.1" id="Layer_1" xmlns="http://www.w3.org/2000/svg" xmlns:xlink="http://www.w3.org/1999/xlink" x="0px" y="0px"
	 viewBox="0 0 809 144" style="enable-background:new 0 0 809 144;" xml:space="preserve">
<style type="text/css">
	.st0{fill:#2DD0C8;}
</style>
<g>
	<path class="st0" d="M109.9,22.6H65.6v121H43.5v-121H-0.3V0.4h109.7v22.2H109.9z"/>
	<path class="st0" d="M186.7,143.6h-22.2V0.4h22.2V143.6z"/>
	<path class="st0" d="M330.4,143.6h-88.1V0.4h22.2v121h65.9V143.6z"/>
	<path class="st0" d="M479.6,121.5c0,6.5-2.2,11.3-5.9,15.7c-4.3,4.3-9.7,6.5-16.2,6.5h-78.4v-22.2h78.4V78.2h-57.8
		c-5.4,0-10.3-1.6-14.1-4.3c-3.8-2.7-6.5-7-7.6-11.9c-0.5-2.2-0.5-3.8-0.5-5.9V22.6c0-5.9,2.2-10.8,6.5-15.7
		c4.3-4.3,9.7-6.5,15.7-6.5h73v22.2h-73v33.5H458c6.5,0,11.9,2.2,15.7,6.5c4.3,4.3,6.5,9.7,6.5,15.7v43.2H479.6z"/>
	<path class="st0" d="M643.3,121.5c0,14.6-7.6,22.2-22.2,22.2h-65.4c-11.9,0-18.9-4.9-21.6-14.6c-0.5-2.2-0.5-4.9-0.5-7.6V22.6
		c0-5.9,2.2-10.8,6.5-15.7c4.3-4.3,9.7-6.5,15.7-6.5h65.4c6.5,0,11.3,2.2,15.7,6.5c4.3,4.3,6.5,9.7,6.5,15.7L643.3,121.5
		L643.3,121.5z M621.2,121.5V22.6h-65.4v98.9H621.2z"/>
	<path class="st0" d="M808.7,143.6h-11.9l-75.7-98.9v98.9H699V0.4h11.9l76.2,98.9V0.4h22.2v143.2L808.7,143.6L808.7,143.6z"/>
</g>
</svg>
