<?xml version="1.0" encoding="utf-8"?>
<!-- Generator: Adobe Illustrator 24.2.0, SVG Export Plug-In . SVG Version: 6.00 Build 0)  -->
<svg version="1.1" id="Layer_1" xmlns="http://www.w3.org/2000/svg" xmlns:xlink="http://www.w3.org/1999/xlink" x="0px" y="0px"
	 viewBox="0 0 100 100" style="enable-background:new 0 0 100 100;" xml:space="preserve">
<g>
	<g>
		<path d="M89.2,15.3c0-0.6-0.5-1-1-1H64.9l-0.1-0.3C64.1,10.4,61.9,8,59.3,8c-2.6,0-4.8,2.4-5.5,5.9l-0.1,0.3h-5.9l-0.1-0.3
			C47.1,10.4,44.9,8,42.3,8c-2.6,0-4.8,2.4-5.5,5.9l-0.1,0.3h-5.9l-0.1-0.3C30,10.4,27.8,8,25.3,8c-2.5,0-4.8,2.4-5.5,5.9l-0.1,0.3
			h-7.9c-0.6,0-1,0.5-1,1.1v75.6c0,0.6,0.5,1.1,1,1.1h64.5c0.6,0,1-0.5,1-1.1v-1.4h5.2c0.6,0,1.1-0.5,1.1-1.1v-3h4.7
			c0.3,0,0.5-0.1,0.7-0.3c0.2-0.2,0.3-0.5,0.3-0.8L89.2,15.3z M56,13.8c0.6-2.2,1.9-3.6,3.3-3.6s2.6,1.4,3.3,3.6l0.1,0.5h-6.8
			L56,13.8z M59.3,22.6c-0.7,0-1.5-0.4-2.1-1.3L56.9,21l0.4-0.2c0.6-0.4,1.2-0.6,1.8-0.6c1.9,0,3.5,1.5,3.5,3.5
			c0,1.9-1.5,3.4-3.5,3.4c-1.8,0-3.3-1.5-3.4-3.3l0-0.9l0.6,0.6c0.9,0.8,2,1.2,3,1.2c0.6,0,1-0.5,1-1C60.4,23.1,59.9,22.6,59.3,22.6
			z M39,13.8c0.6-2.2,1.9-3.6,3.3-3.6s2.7,1.4,3.3,3.6l0.1,0.5h-6.9L39,13.8z M22,13.8c0.6-2.2,1.9-3.6,3.3-3.6
			c1.4,0,2.7,1.4,3.3,3.6l0.1,0.5h-6.8L22,13.8z M75.2,89.9H12.8V16.3h6.7l0,0.4c0,1.5,0.3,2.8,0.9,4.1l0.1,0.2l-0.1,0.1
			c-0.4,0.8-0.6,1.7-0.6,2.6c0,3.1,2.5,5.5,5.6,5.5c3.1,0,5.5-2.5,5.5-5.5s-2.5-5.6-5.5-5.6c-1,0-1.9,0.3-2.8,0.8L22,19.2l-0.1-0.5
			c-0.1-0.6-0.2-1.2-0.3-1.9l0-0.4h14.9l0,0.4c0,1.4,0.3,2.8,0.8,4l0.1,0.2L37.3,21c-0.5,0.8-0.7,1.7-0.7,2.7c0,3.1,2.5,5.5,5.5,5.5
			s5.5-2.5,5.5-5.5s-2.5-5.6-5.5-5.6c-0.9,0-1.9,0.3-2.7,0.8L39,19.1l-0.1-0.5c-0.1-0.6-0.2-1.2-0.2-1.9l0-0.4h14.9l0,0.4
			c0,1.4,0.3,2.7,0.8,3.8l0.1,0.2l-0.1,0.2c-0.5,0.9-0.8,1.8-0.8,2.8c0,3.1,2.5,5.5,5.5,5.5c3.1,0,5.6-2.5,5.6-5.5s-2.5-5.6-5.6-5.6
			c-0.9,0-1.8,0.2-2.6,0.7L56,19l-0.1-0.5c-0.1-0.6-0.2-1.2-0.2-1.8l0-0.4h19.5V89.9z M25.3,22.6c-0.7,0-1.4-0.4-2-1.1l-0.3-0.3
			l0.3-0.2c0.6-0.5,1.3-0.7,2-0.7c1.9,0,3.5,1.5,3.5,3.5c0,1.9-1.5,3.4-3.5,3.4c-1.7,0-3.2-1.3-3.4-3.1l-0.1-0.9l0.7,0.5
			c0.9,0.7,1.8,1,2.8,1c0.6,0,1.1-0.5,1.1-1C26.3,23.1,25.8,22.6,25.3,22.6z M42.3,22.6c-0.7,0-1.5-0.4-2.1-1.2l-0.3-0.3l0.3-0.2
			c0.6-0.4,1.3-0.6,1.9-0.6c1.9,0,3.4,1.5,3.4,3.5c0,1.9-1.5,3.4-3.4,3.4c-1.8,0-3.3-1.4-3.4-3.2L38.7,23l0.7,0.6
			c0.9,0.8,1.9,1.1,2.9,1.1c0.6,0,1.1-0.5,1.1-1C43.3,23.1,42.9,22.6,42.3,22.6z M81.4,87.4h-4.1V16.3h4.1V87.4z M83.5,83.3v-67h3.6
			v0.4l0.1,66.6H83.5z"/>
	</g>
	<g>
		<path d="M68.9,32.7c0,0.6-0.5,1-1,1H18.4c-0.6,0-1.1-0.5-1.1-1c0-0.6,0.5-1.1,1.1-1.1h49.5C68.5,31.6,68.9,32.1,68.9,32.7z"/>
	</g>
	<g>
		<path d="M26.8,42.6h-7.9c-0.6,0-1.1,0.5-1.1,1.1v7.9c0,0.6,0.5,1.1,1.1,1.1h7.9c0.6,0,1.1-0.5,1.1-1.1v-7.9
			C27.8,43,27.3,42.6,26.8,42.6z M25.7,50.5h-5.8v-5.8h5.8V50.5z"/>
	</g>
	<g>
		<path d="M40.9,42.6H33c-0.6,0-1.1,0.5-1.1,1.1v7.9c0,0.6,0.5,1.1,1.1,1.1h7.9c0.6,0,1.1-0.5,1.1-1.1v-7.9
			C42,43,41.5,42.6,40.9,42.6z M39.8,50.5H34v-5.8h5.8V50.5z"/>
	</g>
	<g>
		<path d="M55,42.6h-7.9c-0.6,0-1.1,0.5-1.1,1.1v7.9c0,0.6,0.5,1.1,1.1,1.1H55c0.6,0,1.1-0.5,1.1-1.1v-7.9
			C56.1,43,55.6,42.6,55,42.6z M54,50.5h-5.8v-5.8H54V50.5z"/>
	</g>
	<g>
		<path d="M69.2,42.6h-7.9c-0.6,0-1,0.5-1,1.1v7.9c0,0.6,0.5,1.1,1,1.1h7.9c0.6,0,1.1-0.5,1.1-1.1v-7.9C70.2,43,69.8,42.6,69.2,42.6
			z M68.1,50.5h-5.8v-5.8h5.8V50.5z"/>
	</g>
	<g>
		<path d="M26.8,57h-7.9c-0.6,0-1.1,0.5-1.1,1.1V66c0,0.6,0.5,1.1,1.1,1.1h7.9c0.6,0,1.1-0.5,1.1-1.1v-7.9
			C27.8,57.5,27.3,57,26.8,57z M25.7,65h-5.8v-5.8h5.8V65z"/>
	</g>
	<g>
		<path d="M40.9,57H33c-0.6,0-1.1,0.5-1.1,1.1V66c0,0.6,0.5,1.1,1.1,1.1h7.9c0.6,0,1.1-0.5,1.1-1.1v-7.9C42,57.5,41.5,57,40.9,57z
			 M39.8,65H34v-5.8h5.8V65z"/>
	</g>
	<g>
		<path d="M55,57h-7.9c-0.6,0-1.1,0.5-1.1,1.1V66c0,0.6,0.5,1.1,1.1,1.1H55c0.6,0,1.1-0.5,1.1-1.1v-7.9C56.1,57.5,55.6,57,55,57z
			 M54,65h-5.8v-5.8H54V65z"/>
	</g>
	<g>
		<path d="M69.2,57h-7.9c-0.6,0-1,0.5-1,1.1V66c0,0.6,0.5,1.1,1,1.1h7.9c0.6,0,1.1-0.5,1.1-1.1v-7.9C70.2,57.5,69.8,57,69.2,57z
			 M68.1,65h-5.8v-5.8h5.8V65z"/>
	</g>
	<g>
		<path d="M26.8,71.5h-7.9c-0.6,0-1.1,0.5-1.1,1.1v7.9c0,0.6,0.5,1.1,1.1,1.1h7.9c0.6,0,1.1-0.5,1.1-1.1v-7.9
			C27.8,72,27.3,71.5,26.8,71.5z M25.7,79.4h-5.8v-5.8h5.8V79.4z"/>
	</g>
	<g>
		<path d="M40.9,71.5H33c-0.6,0-1.1,0.5-1.1,1.1v7.9c0,0.6,0.5,1.1,1.1,1.1h7.9c0.6,0,1.1-0.5,1.1-1.1v-7.9
			C42,72,41.5,71.5,40.9,71.5z M39.8,79.4H34v-5.8h5.8V79.4z"/>
	</g>
	<g>
		<path d="M55,71.5h-7.9c-0.6,0-1.1,0.5-1.1,1.1v7.9c0,0.6,0.5,1.1,1.1,1.1H55c0.6,0,1.1-0.5,1.1-1.1v-7.9
			C56.1,72,55.6,71.5,55,71.5z M54,79.4h-5.8v-5.8H54V79.4z"/>
	</g>
	<g>
		<path d="M69.2,71.5h-7.9c-0.6,0-1,0.5-1,1.1v7.9c0,0.6,0.5,1.1,1,1.1h7.9c0.6,0,1.1-0.5,1.1-1.1v-7.9C70.2,72,69.8,71.5,69.2,71.5
			z M68.1,79.4h-5.8v-5.8h5.8V79.4z"/>
	</g>
</g>
</svg>
