<svg height='100px' width='100px'  fill="#000000" xmlns="http://www.w3.org/2000/svg" viewBox="0 0 48 48" x="0px" y="0px"><title>Clipboard Writing</title><g data-name="Clipboard Writing"><path d="M44.25,13.14a3.51,3.51,0,0,0-4.78,1.28L38,17V6a1,1,0,0,0-1-1H28V4a1,1,0,0,0-1-1H23.87a4,4,0,0,0-7.74,0H13a1,1,0,0,0-1,1V5H3A1,1,0,0,0,2,6V47a1,1,0,0,0,1,1H37a1,1,0,0,0,1-1V31l7.53-13A3.5,3.5,0,0,0,44.25,13.14ZM14,5h3a1,1,0,0,0,1-1,2,2,0,0,1,4,0,1,1,0,0,0,1,1h3V7H14ZM36,46H4V7h8V8a1,1,0,0,0,1,1H27a1,1,0,0,0,1-1V7h8V20.43C27.54,35.08,28.11,34,28.09,34.35c-.36,6-.55,6.09.16,6.51a1,1,0,0,0,1.05,0c5.11-3.37,4.82-3.13,5-3.41l1.72-3ZM30,35.24a3.4,3.4,0,0,1,2.18,1.26l-2.35,1.55Zm3.4-.38a5.38,5.38,0,0,0-2.6-1.5l8.11-14,2.6,1.5ZM43.8,16.92l-1.25,2.17L40,17.59l1.25-2.17A1.5,1.5,0,0,1,43.8,16.92Z"></path><path d="M8,16H32a1,1,0,0,0,0-2H8A1,1,0,0,0,8,16Z"></path><path d="M8,22H32a1,1,0,0,0,0-2H8A1,1,0,0,0,8,22Z"></path><path d="M24,26H8a1,1,0,0,0,0,2H24A1,1,0,0,0,24,26Z"></path><path d="M24,32H8a1,1,0,0,0,0,2H24A1,1,0,0,0,24,32Z"></path><path d="M18,38H8a1,1,0,0,0,0,2H18A1,1,0,0,0,18,38Z"></path></g></svg>