<?xml version="1.0" encoding="utf-8"?>
<!-- Generator: Adobe Illustrator 24.2.0, SVG Export Plug-In . SVG Version: 6.00 Build 0)  -->
<svg version="1.1" id="Layer_1" xmlns="http://www.w3.org/2000/svg" xmlns:xlink="http://www.w3.org/1999/xlink" x="0px" y="0px"
	 viewBox="0 0 100 100" style="enable-background:new 0 0 100 100;" xml:space="preserve">
<style type="text/css">
	.st0{fill:#FFFFFF;}
</style>
<g>
	<g>
		<path d="M83.8,70.2c-0.6-0.9-1.3-1.7-2.3-2.3l-2.4-1.6l0.2-0.2c1.6-1.6,2.6-3.8,2.9-6.1c0-0.1,0-0.2,0-0.3c0-0.2,0-0.4,0-0.6v-1.4
			c0.1-2.7-0.9-5.2-2.7-7.2c-1.8-2-4.3-3.1-7-3.2c-2.7-0.1-5.2,0.9-7.2,2.7c-2,1.8-3.1,4.3-3.2,7c0,0.2,0,0.5,0,0.7v1.4
			c0,0.1,0,0.3,0,0.5l0,0.3c0.2,2.4,1.2,4.6,3,6.3l0.2,0.2l-2.3,1.3L63,67.6c-0.6-0.8-1.4-1.6-2.2-2.2L60.1,65
			c-0.1-0.1-0.2-0.1-0.2-0.1c-0.7-0.2-1.4-0.5-2.1-0.8l-0.3-0.1l0.3-0.2c2.1-1.9,3.4-4.5,3.7-7.3c0-0.1,0-0.2,0-0.4
			c0-0.2,0-0.5,0-0.7v-1.5c0-3-1.1-5.8-3.2-7.9c-2.1-2.1-4.9-3.3-7.9-3.3h0c-3.9,0-7.6,2.1-9.6,5.5c-1,1.7-1.6,3.7-1.6,5.7v1.5
			c0,0.1,0,0.5,0.1,0.7c0,0.1,0,0.1,0,0.2c0.2,2.7,1.5,5.3,3.5,7.2l0.2,0.2l-3.1,1.8c-0.9,0.5-1.7,1.2-2.4,2l-0.1,0.2l-2-1.3
			l0.2-0.2c1.6-1.6,2.7-3.8,2.9-6.1c0-0.1,0-0.2,0-0.3c0-0.2,0-0.4,0-0.6v-1.4c0.1-2.7-0.9-5.2-2.7-7.2c-1.8-2-4.3-3.1-7-3.2
			c-0.1,0-0.2,0-0.4,0c-2.5,0-4.9,1-6.8,2.7c-2,1.8-3.1,4.3-3.2,7c0,0.2,0,0.5,0,0.7v1.4c0,0.1,0,0.5,0,0.7v0.2
			c0.2,2.4,1.2,4.6,3,6.3l0.2,0.2L19,67.9c-2.5,1.4-4,4.1-4,6.9v13.3c0,0.6,0.5,1.1,1.1,1.1h67.8c0.6,0,1.1-0.5,1.1-1.1V74.5
			C85,73,84.6,71.5,83.8,70.2z M20.7,59.8c0-0.1,0-0.1,0-0.2v0c0-0.1,0-0.5,0-0.6v-1.4c-0.1-2.1,0.6-4,2-5.5
			c1.4-1.5,3.3-2.4,5.4-2.5c4.3-0.2,7.9,3.1,8,7.4c0,0.2,0,0.4,0,0.7v1.3c0,0.1,0,0.2,0,0.3c0,0.1,0,0.3,0,0.3
			c-0.2,2.2-1.3,4.2-3.1,5.5l-0.2,0.1c0,0-0.1,0.1-0.1,0.1c-0.1,0.1-0.2,0.1-0.3,0.2c-0.1,0.1-0.2,0.1-0.3,0.2
			c-0.2,0.1-0.5,0.3-0.8,0.4c-0.4,0.2-0.8,0.3-1.2,0.4c-0.2,0-0.3,0.1-0.5,0.1c-0.2,0-0.5,0.1-0.7,0.1c-0.2,0-0.4,0-0.6,0
			c-0.2,0-0.4,0-0.6,0c-0.1,0-0.1,0-0.1,0c-0.1,0-0.1,0-0.2,0c-0.3,0-0.6-0.1-0.8-0.1l-0.2,0c-0.2-0.1-0.5-0.1-0.7-0.2
			c-0.2-0.1-0.3-0.1-0.5-0.2C25.1,66,25,66,24.9,65.9c0,0-0.1-0.1-0.2-0.1l-0.5-0.3c-0.1,0-0.1-0.1-0.1-0.1
			C22.2,64.2,21,62.1,20.7,59.8z M36,69.7c-0.1,0.3-0.2,0.6-0.3,0.9c0,0.1,0,0.1-0.1,0.2l0,0.1c-0.1,0.2-0.1,0.5-0.1,0.7
			c0,0.2-0.1,0.3-0.1,0.4c0,0.2,0,0.4,0,0.7c0,0.1,0,0.1,0,0.2c0,0.1,0,0.1,0,0.2V87H17.3V74.8c0-1,0.3-2,0.8-2.8
			c0.5-0.9,1.2-1.6,2.1-2.1l3.6-2l0.1,0.1c0.1,0,0.1,0.1,0.1,0.1c0.1,0.1,0.2,0.1,0.3,0.1c0.3,0.1,0.5,0.3,0.8,0.4
			c0.3,0.1,0.6,0.2,0.9,0.3c0,0,0.1,0,0.1,0c0,0,0.1,0,0.1,0c0.4,0.1,0.8,0.1,1.1,0.2c0.4,0.1,0.8,0.1,1.2,0.1c0.4,0,0.8,0,1.2-0.1
			l0.1,0c0.3,0,0.7-0.1,1-0.2l0.2-0.1c0.4-0.1,0.8-0.2,1.2-0.4c0.1,0,0.2-0.1,0.3-0.1l0.1,0c0.2-0.1,0.4-0.2,0.5-0.3l0.1,0
			c0,0,0,0,0.1,0l0.1-0.1l0.1,0.1l2.6,1.7L36,69.7z M41.6,56.2L41.6,56.2c0-0.1,0-0.2,0-0.2c0-0.1,0-0.5,0-0.7v-1.5
			c0-1.6,0.4-3.2,1.3-4.5c1.2-2,3.1-3.5,5.4-4c2.3-0.6,4.7-0.2,6.7,1c2.7,1.6,4.3,4.5,4.3,7.6v1.5c0,0.1,0,0.3,0,0.5
			c0,0,0,0.1,0,0.1c0,0.1,0,0.1,0,0.1c-0.2,2.5-1.5,4.8-3.5,6.3c-0.1,0.1-0.2,0.1-0.3,0.2c-0.2,0.1-0.4,0.2-0.6,0.3
			c0,0-0.1,0.1-0.1,0.1c-0.3,0.2-0.6,0.3-0.9,0.4c-1.1,0.4-2.2,0.7-3.4,0.7c-0.4,0-0.7,0-1.1-0.1c-0.3,0-0.7-0.1-1-0.2
			c-0.3-0.1-0.7-0.2-1-0.3c-0.2-0.1-0.5-0.2-0.7-0.3l-0.3-0.1c-0.1-0.1-0.3-0.1-0.5-0.3l-0.1-0.1h0l-0.2-0.1c0,0-0.1-0.1-0.1-0.1
			l-0.2-0.1l0,0C43.2,61.1,41.8,58.8,41.6,56.2z M62.4,87H37.6V73.1c0-1.2,0.3-2.4,0.9-3.4c0.5-0.9,1.3-1.7,2.2-2.2l0.1-0.1l4.1-2.3
			l0.1,0.1c0.1,0,0.2,0.1,0.3,0.1l0.2,0.1c0.3,0.2,0.6,0.3,1,0.4c0.4,0.1,0.8,0.3,1.2,0.4c0.4,0.1,0.8,0.2,1.2,0.2
			c0.6,0.1,1.1,0.1,1.7,0.1c0.3,0,0.6,0,0.9-0.1c0.2,0,0.4-0.1,0.5-0.1c0.3,0,0.5-0.1,0.8-0.2l0.1,0c0.1,0,0.2-0.1,0.4-0.1
			c0.4-0.1,0.8-0.3,1.2-0.4c0.2-0.1,0.4-0.2,0.6-0.3l0.1-0.1l0.1,0.1c1.1,0.6,2.3,1.1,3.6,1.6l0.5,0.3c0.7,0.5,1.4,1.1,1.8,1.9
			c0.1,0.2,0.3,0.4,0.4,0.7c0.4,0.9,0.7,1.9,0.7,2.9V87z M64.6,59.8c0,0,0-0.1,0-0.3l0-0.3c0-0.1,0-0.2,0-0.2v-1.4
			c-0.1-2.1,0.6-4,2-5.5c1.4-1.5,3.3-2.4,5.4-2.5c2.1-0.1,4,0.6,5.5,2c1.5,1.4,2.4,3.3,2.5,5.4c0,0.2,0,0.4,0,0.6v1.4
			c0,0.1,0,0.2,0,0.4c0,0,0,0.1,0,0.1c0,0.1,0,0.1,0,0.1c-0.2,2.2-1.3,4.2-3,5.5l-0.2,0.1c-0.1,0-0.1,0.1-0.1,0.1
			c-0.2,0.1-0.4,0.3-0.6,0.4L75.6,66c-0.1,0-0.2,0.1-0.3,0.1l-0.3,0.1c-0.1,0-0.1,0-0.1,0.1c-0.4,0.2-0.8,0.3-1.2,0.4
			c-0.5,0.1-1,0.2-1.4,0.2c0,0,0,0,0,0h-0.2c-0.3,0-0.5,0-0.8-0.1c-0.1,0-0.3,0-0.4,0c-0.1,0-0.2,0-0.3-0.1l-0.3-0.1
			c-0.1,0-0.2-0.1-0.3-0.1c-0.1,0-0.2-0.1-0.4-0.1c-0.1,0-0.2-0.1-0.4-0.1L69,66c0,0-0.1,0-0.1,0c-0.1-0.1-0.2-0.1-0.2-0.1
			c-0.1-0.1-0.1-0.1-0.2-0.1l-0.4-0.2c0,0-0.1-0.1-0.1-0.1l-0.2-0.1l0,0C66,64.1,64.8,62.1,64.6,59.8z M64.6,87V72.7
			c0-0.4,0-0.9-0.1-1.3c0-0.1,0-0.2-0.1-0.3c-0.1-0.4-0.1-0.7-0.3-1c0,0,0-0.1,0-0.1l-0.1-0.2l0.1-0.1l2-1.2c0.1,0,0.1,0,0.1-0.1
			l1-0.6l0.1,0.1c0.1,0.1,0.2,0.1,0.2,0.1c0,0,0.1,0,0.1,0.1c0.1,0,0.2,0.1,0.2,0.1l0.1,0.1c0.2,0.1,0.3,0.1,0.5,0.2
			c0.2,0.1,0.3,0.1,0.4,0.1l0.1,0.1c0.1,0,0.2,0.1,0.4,0.1c0.1,0,0.1,0,0.1,0l0,0.1l0-0.1l0,0c0.1,0,0.1,0,0.2,0c0.1,0,0.1,0,0.2,0
			l0.2,0.1c0.2,0,0.4,0.1,0.5,0.1c0.2,0,0.4,0.1,0.6,0.1c0.1,0,0.1,0,0.2,0l0.4,0c0.1,0,0.1,0,0.1,0c0.1,0,0.3,0,0.4,0l0.2,0
			c0.1,0,0.3,0,0.4,0c0.3,0,0.6-0.1,0.9-0.1c0.5-0.1,1-0.3,1.5-0.5l0.1,0c0.1,0,0.1,0,0.1,0c0.1,0,0.1-0.1,0.2-0.1l0.1-0.1
			c0.1,0,0.1,0,0.2-0.1c0.1,0,0.1,0,0.1-0.1l0.1,0l0.2,0.2L76.7,68l0.1,0c0.1,0,0.2-0.1,0.3-0.2l0.1-0.1l0.1,0.1l3,2
			c0.6,0.4,1.2,1,1.6,1.6c0.6,0.9,0.9,1.9,0.9,3l0,12.5H64.6z"/>
		<path class="st0" d="M76.8,68.2L76.8,68.2L76.8,68.2L76.8,68.2c-0.1,0.1-0.1,0.1-0.1,0.1l0.2,0.2l0.1,0L76.8,68.2z M76.8,68.2
			L76.8,68.2L76.8,68.2L76.8,68.2c-0.1,0.1-0.1,0.1-0.1,0.1l0.2,0.2l0.1,0L76.8,68.2z M76.8,68.2L76.8,68.2L76.8,68.2L76.8,68.2
			c-0.1,0.1-0.1,0.1-0.1,0.1l0.2,0.2l0.1,0L76.8,68.2z M76.8,68.2L76.8,68.2L76.8,68.2L76.8,68.2c-0.1,0.1-0.1,0.1-0.1,0.1l0.2,0.2
			l0.1,0L76.8,68.2z M76.8,68.2L76.8,68.2L76.8,68.2L76.8,68.2c-0.1,0.1-0.1,0.1-0.1,0.1l0.2,0.2l0.1,0L76.8,68.2z M76.8,68.2
			L76.8,68.2L76.8,68.2L76.8,68.2c-0.1,0.1-0.1,0.1-0.1,0.1l0.2,0.2l0.1,0L76.8,68.2z M76.8,68.2L76.8,68.2L76.8,68.2L76.8,68.2
			c-0.1,0.1-0.1,0.1-0.1,0.1l0.2,0.2l0.1,0L76.8,68.2z M76.8,68.2L76.8,68.2L76.8,68.2L76.8,68.2c-0.1,0.1-0.1,0.1-0.1,0.1l0.2,0.2
			l0.1,0L76.8,68.2z M76.8,68.2L76.8,68.2L76.8,68.2L76.8,68.2c-0.1,0.1-0.1,0.1-0.1,0.1l0.2,0.2l0.1,0L76.8,68.2z M76.8,68.2
			L76.8,68.2L76.8,68.2L76.8,68.2c-0.1,0.1-0.1,0.1-0.1,0.1l0.2,0.2l0.1,0L76.8,68.2z M76.8,68.2L76.8,68.2L76.8,68.2L76.8,68.2
			c-0.1,0.1-0.1,0.1-0.1,0.1l0.2,0.2l0.1,0L76.8,68.2z M76.8,68.2L76.8,68.2L76.8,68.2L76.8,68.2c-0.1,0.1-0.1,0.1-0.1,0.1l0.2,0.2
			l0.1,0L76.8,68.2z M76.8,68.2L76.8,68.2L76.8,68.2L76.8,68.2c-0.1,0.1-0.1,0.1-0.1,0.1l0.2,0.2l0.1,0L76.8,68.2z M76.8,68.2
			L76.8,68.2L76.8,68.2L76.8,68.2c-0.1,0.1-0.1,0.1-0.1,0.1l0.2,0.2l0.1,0L76.8,68.2z M76.8,68.2L76.8,68.2L76.8,68.2L76.8,68.2
			c-0.1,0.1-0.1,0.1-0.1,0.1l0.2,0.2l0.1,0L76.8,68.2z M76.8,68.2L76.8,68.2L76.8,68.2L76.8,68.2c-0.1,0.1-0.1,0.1-0.1,0.1l0.2,0.2
			l0.1,0L76.8,68.2z M76.8,68.2L76.8,68.2L76.8,68.2L76.8,68.2c-0.1,0.1-0.1,0.1-0.1,0.1l0.2,0.2l0.1,0L76.8,68.2z"/>
	</g>
	<g>
		<path d="M82.4,16.3c-2.6-3.5-6.7-5.6-11.1-5.6c0,0,0,0,0,0H60.9c-1.5,0-3.1,0.3-4.5,0.8c-1.5,0.5-2.8,1.2-4,2.2l-0.1,0.1l-0.1-0.1
			c-2.4-1.9-5.4-3-8.5-3c0,0,0,0,0,0H33.2c-3.7,0-7.1,1.4-9.7,4c-2.6,2.6-4,6-4,9.7c0,4.4,2.1,8.5,5.6,11.1L25,35.7h0.2v8.2
			c0,0.6,0.5,1.1,1.1,1.1c0.2,0,0.5-0.1,0.7-0.2l9.1-6.7h7.4c3.1,0,6.1-1.1,8.5-3l0.1-0.1l0.1,0.1c2.4,1.9,5.4,3,8.5,3c0,0,0,0,0,0
			h7.4l0.1,0l9.1,6.6c0.2,0.1,0.4,0.2,0.7,0.2c0.2,0,0.4,0,0.5-0.1c0.4-0.2,0.6-0.6,0.6-1v-8.3l0.1-0.1C85.5,31,86.9,22.4,82.4,16.3
			z M50.4,33.5c-1.9,1.5-4.4,2.3-6.8,2.3c0,0,0,0,0,0h-7.8c-0.2,0-0.5,0.1-0.7,0.2l-7.6,5.5v-6.7c0-0.4-0.2-0.8-0.5-1
			c-2.6-1.7-4.3-4.2-4.9-7.2c-0.6-3-0.1-6,1.6-8.6c0.4-0.7,0.9-1.3,1.5-1.9c2.1-2.1,5.1-3.3,8.1-3.3c0,0,0,0,0,0h10.4
			c2.4,0,4.9,0.8,6.8,2.3l0.2,0.1l-0.1,0.2c-0.3,0.4-0.6,0.7-0.8,1c0,0.1-0.1,0.1-0.1,0.2l-0.1,0.1c-0.2,0.3-0.4,0.6-0.5,0.8
			c-0.1,0.1-0.1,0.3-0.2,0.4c-0.1,0.3-0.3,0.5-0.4,0.8c-0.1,0.2-0.1,0.3-0.2,0.5c-0.1,0.2-0.2,0.5-0.3,0.7c-0.1,0.2-0.1,0.3-0.2,0.5
			c-0.1,0.2-0.1,0.4-0.1,0.6l-0.1,0.3c0,0.1-0.1,0.3-0.1,0.4c-0.1,0.3-0.1,0.6-0.1,0.9l0,0.2c0,0.1,0,0.2,0,0.3
			c0,0.5-0.1,0.9-0.1,1.3c0,0.4,0,0.8,0.1,1.3c0,0.1,0,0.2,0,0.3l0,0.2c0,0.3,0.1,0.6,0.1,0.8c0,0.1,0.1,0.2,0.1,0.4l0,0.1
			c0.1,0.3,0.1,0.5,0.2,0.7c0,0.1,0.1,0.3,0.1,0.4l0,0.1c0.1,0.2,0.2,0.5,0.2,0.7c0.1,0.2,0.1,0.3,0.2,0.5c0.1,0.2,0.2,0.4,0.3,0.7
			c0.1,0.2,0.2,0.3,0.2,0.5c0.1,0.2,0.3,0.4,0.4,0.7l0.1,0.1c0.1,0.1,0.1,0.2,0.2,0.3c0.2,0.2,0.3,0.4,0.5,0.7l0.1,0.1
			c0.1,0.1,0.1,0.1,0.2,0.2l0.2,0.2L50.4,33.5z M77.5,34c-0.3,0.2-0.5,0.6-0.5,1v6.7L69.4,36c-0.2-0.1-0.4-0.2-0.7-0.2h-7.8
			c-3,0-5.8-1.2-8-3.3c0,0-0.1-0.1-0.1-0.1c-2.1-2.1-3.4-5.1-3.3-8.1c0-0.4,0-0.8,0.1-1.2C50.2,17.4,55,13,60.9,13c0,0,0,0,0,0h10.4
			c0,0,0,0,0,0c6.3,0,11.4,5.1,11.4,11.4C82.7,28.3,80.8,31.9,77.5,34z"/>
	</g>
	<g>
		<path d="M75.5,24.9c0,0.6-0.5,1.1-1.1,1.1H57.9c-0.6,0-1.1-0.5-1.1-1.1c0-0.6,0.5-1.1,1.1-1.1h16.4C75,23.7,75.5,24.2,75.5,24.9z"
			/>
	</g>
	<g>
		<path d="M43.8,24.9c0,0.6-0.5,1.1-1.2,1.1H29.1c-0.6,0-1.2-0.5-1.2-1.1c0-0.6,0.5-1.1,1.2-1.1h13.6C43.3,23.7,43.8,24.2,43.8,24.9
			z"/>
	</g>
</g>
</svg>
