<?xml version="1.0" encoding="utf-8"?>
<!-- Generator: Adobe Illustrator 24.2.0, SVG Export Plug-In . SVG Version: 6.00 Build 0)  -->
<svg version="1.1" id="Layer_1" xmlns="http://www.w3.org/2000/svg" xmlns:xlink="http://www.w3.org/1999/xlink" x="0px" y="0px"
	 viewBox="0 0 100 100" style="enable-background:new 0 0 100 100;" xml:space="preserve">
<style type="text/css">
	.st0{fill:#FFFFFF;}
</style>
<g>
	<g>
		<path d="M87,73.2c-0.6-1.1-1.5-2-2.6-2.6l-2.7-1.8l0.2-0.2c1.9-1.8,3-4.3,3.3-6.9c0-0.1,0-0.3,0-0.4c0-0.3,0-0.5,0-0.7v-1.6
			c0.1-3.1-1-6-3.1-8.2c-2.1-2.2-4.9-3.5-8-3.6c-3-0.1-6,1-8.2,3.1c-2.2,2.1-3.5,4.9-3.6,8c0,0.3,0,0.5,0,0.8v1.6c0,0.1,0,0.4,0,0.6
			l0,0.3c0.2,2.7,1.4,5.3,3.4,7.2l0.2,0.2l-2.7,1.5l-0.1-0.2c-0.7-1-1.5-1.8-2.5-2.5l-0.7-0.5c-0.1-0.1-0.2-0.1-0.3-0.1
			c-0.8-0.3-1.5-0.6-2.4-1L56.9,66l0.3-0.3c2.4-2.1,3.9-5.1,4.2-8.3c0-0.2,0-0.3,0-0.4c0-0.3,0-0.5,0-0.8v-1.8c0-3.4-1.3-6.6-3.7-9
			c-2.4-2.4-5.6-3.7-9-3.8h0c-4.5,0-8.7,2.4-11,6.2c-1.2,2-1.8,4.2-1.8,6.5v1.8c0,0.2,0,0.5,0.1,0.8c0,0.1,0,0.2,0,0.2
			c0.3,3.1,1.7,6,4,8.2l0.3,0.2l-3.6,2.1c-1,0.6-2,1.3-2.7,2.3l-0.1,0.2l-2.3-1.5l0.2-0.2c1.9-1.9,3-4.4,3.3-7c0-0.1,0-0.3,0-0.4
			c0-0.2,0-0.4,0-0.7v-1.5c0.1-3.1-1-6-3.1-8.2c-2.1-2.3-4.9-3.6-8-3.7c-0.1,0-0.3,0-0.4,0c-2.9,0-5.6,1.1-7.8,3.1
			c-2.3,2.1-3.5,4.9-3.7,8c0,0.3,0,0.6,0,0.8v1.6c0,0.2,0,0.5,0,0.8v0.2c0.2,2.7,1.4,5.3,3.4,7.2l0.2,0.2l-3,1.7
			c-2.8,1.6-4.6,4.7-4.6,7.9v15.3c0,0.7,0.6,1.3,1.3,1.3h77.6c0.7,0,1.3-0.6,1.3-1.3V78.1C88.4,76.3,87.9,74.6,87,73.2z M14.8,61.3
			c0-0.1,0-0.1,0-0.2v0c0-0.1,0-0.5,0-0.7v-1.5c-0.1-2.3,0.7-4.6,2.3-6.3c1.6-1.7,3.8-2.8,6.1-2.9c4.9-0.2,9,3.6,9.2,8.5
			c0,0.3,0,0.5,0,0.8v1.5c0,0.1,0,0.3,0,0.4c0,0.1,0,0.3,0,0.3c-0.2,2.5-1.5,4.8-3.5,6.3l-0.2,0.2c0,0-0.1,0.1-0.1,0.1
			c-0.1,0.1-0.3,0.2-0.4,0.3c-0.1,0.1-0.2,0.1-0.3,0.2c-0.3,0.2-0.6,0.3-0.9,0.4c-0.5,0.2-0.9,0.3-1.4,0.4c-0.2,0-0.4,0.1-0.6,0.1
			c-0.3,0-0.6,0.1-0.8,0.1c-0.2,0-0.4,0-0.6,0c-0.2,0-0.4,0-0.6,0c-0.1,0-0.1,0-0.2,0c-0.1,0-0.1,0-0.2,0c-0.3,0-0.6-0.1-1-0.2
			L21.4,69c-0.3-0.1-0.5-0.1-0.8-0.2c-0.2-0.1-0.4-0.2-0.6-0.3c-0.1-0.1-0.3-0.1-0.4-0.2c0,0-0.1-0.1-0.2-0.1l-0.5-0.3
			c-0.1,0-0.1-0.1-0.1-0.1C16.5,66.3,15.1,64,14.8,61.3z M32.3,72.6c-0.2,0.4-0.3,0.7-0.4,1.1c0,0.1,0,0.2-0.1,0.3l0,0.1
			c-0.1,0.3-0.1,0.5-0.1,0.8c0,0.2-0.1,0.3-0.1,0.5c0,0.3,0,0.5,0,0.8c0,0.1,0,0.1,0,0.2c0,0.1,0,0.1,0,0.2v15.9H10.8v-14
			c0-1.2,0.3-2.3,0.9-3.3c0.6-1,1.4-1.8,2.4-2.4l4.1-2.3l0.1,0.1c0.1,0,0.1,0.1,0.2,0.1c0.1,0.1,0.2,0.1,0.3,0.1
			c0.3,0.2,0.6,0.3,0.9,0.4c0.3,0.1,0.6,0.2,1,0.3c0,0,0.1,0,0.1,0c0,0,0.1,0,0.1,0c0.4,0.1,0.9,0.2,1.3,0.2
			c0.5,0.1,0.9,0.1,1.4,0.1c0.5,0,0.9,0,1.4-0.1l0.1,0c0.4-0.1,0.8-0.1,1.2-0.2l0.3-0.1c0.5-0.1,0.9-0.3,1.4-0.5
			c0.1,0,0.3-0.1,0.4-0.2l0.1,0c0.2-0.1,0.4-0.2,0.6-0.3l0.1-0.1c0,0,0,0,0.1,0l0.1-0.1l0.2,0.1l3,2L32.3,72.6z M38.7,57.2
			L38.7,57.2c0-0.1,0-0.2,0-0.3c0-0.1,0-0.6,0-0.8v-1.8c0-1.8,0.5-3.6,1.4-5.2c1.4-2.3,3.6-4,6.2-4.6c2.6-0.7,5.3-0.3,7.7,1.1
			c3.1,1.8,4.9,5.2,4.9,8.7v1.8c0,0.2,0,0.3,0,0.5c0,0,0,0.1,0,0.2c0,0.1,0,0.1,0,0.1c-0.3,2.9-1.7,5.5-4,7.3
			c-0.1,0.1-0.2,0.1-0.4,0.3c-0.2,0.1-0.4,0.3-0.6,0.4c0,0-0.1,0.1-0.1,0.1c-0.3,0.2-0.7,0.4-1,0.5c-1.2,0.5-2.5,0.8-3.8,0.8
			c-0.4,0-0.8,0-1.2-0.1c-0.4,0-0.8-0.1-1.1-0.2c-0.4-0.1-0.8-0.2-1.1-0.3c-0.3-0.1-0.6-0.2-0.8-0.4l-0.3-0.1
			c-0.2-0.1-0.3-0.2-0.5-0.3l-0.1-0.1h0l-0.2-0.1c0,0-0.1-0.1-0.1-0.1l-0.2-0.1l0-0.1C40.5,62.8,39,60.2,38.7,57.2z M62.5,92.4H34.2
			V76.5c0-1.4,0.4-2.7,1.1-3.9c0.6-1.1,1.5-2,2.6-2.6L38,70l4.7-2.7l0.1,0.1c0.1,0,0.2,0.1,0.3,0.2l0.2,0.1c0.4,0.2,0.7,0.3,1.1,0.5
			c0.5,0.2,0.9,0.3,1.4,0.4c0.5,0.1,0.9,0.2,1.4,0.3c0.6,0.1,1.3,0.1,1.9,0.1c0.4,0,0.7,0,1-0.1c0.2,0,0.4-0.1,0.6-0.1
			c0.3-0.1,0.6-0.1,0.9-0.2l0.1,0c0.1,0,0.3-0.1,0.4-0.1c0.5-0.1,1-0.3,1.4-0.5c0.2-0.1,0.5-0.2,0.7-0.3l0.1-0.1l0.1,0.1
			c1.3,0.7,2.7,1.3,4.1,1.8l0.6,0.4c0.8,0.6,1.5,1.3,2.1,2.2c0.2,0.3,0.3,0.5,0.4,0.8c0.5,1,0.8,2.1,0.8,3.3V92.4z M65,61.3
			c0,0,0-0.2,0-0.3l0-0.3c0-0.1,0-0.2,0-0.2v-1.6c-0.1-2.3,0.7-4.6,2.3-6.3c1.6-1.7,3.8-2.8,6.1-2.8c2.4-0.1,4.6,0.7,6.4,2.3
			c1.7,1.6,2.7,3.8,2.8,6.1c0,0.2,0,0.5,0,0.7v1.5c0,0.1,0,0.3,0,0.4c0,0,0,0.1,0,0.2c0,0.1,0,0.1,0,0.2c-0.2,2.5-1.5,4.8-3.5,6.3
			l-0.2,0.2c-0.1,0-0.1,0.1-0.2,0.1c-0.2,0.2-0.5,0.3-0.7,0.4l-0.4,0.2c-0.1,0-0.2,0.1-0.3,0.1l-0.3,0.1c-0.1,0-0.1,0-0.2,0.1
			c-0.5,0.2-0.9,0.3-1.4,0.4c-0.5,0.1-1.1,0.2-1.6,0.2c0,0,0,0,0,0h-0.2c-0.3,0-0.6,0-0.9-0.1c-0.1,0-0.3,0-0.4,0
			c-0.1,0-0.2,0-0.3-0.1L71.5,69c-0.1,0-0.2-0.1-0.4-0.1c-0.1,0-0.2-0.1-0.4-0.2c-0.1-0.1-0.3-0.1-0.4-0.2L70,68.4c0,0-0.1,0-0.1,0
			c-0.1-0.1-0.2-0.1-0.3-0.1c-0.1-0.1-0.1-0.1-0.2-0.1L69,67.9c0,0-0.1-0.1-0.1-0.1l-0.2-0.1l0,0C66.6,66.2,65.2,63.9,65,61.3z
			 M65.1,92.4V76.1c0-0.5,0-1-0.1-1.5c0-0.1,0-0.2-0.1-0.4c-0.1-0.4-0.2-0.8-0.3-1.2c0,0,0-0.1,0-0.1l-0.1-0.2l0.2-0.2l2.3-1.3
			c0.1,0,0.1-0.1,0.1-0.1l1.2-0.7l0.1,0.1c0.1,0.1,0.2,0.1,0.3,0.1c0,0,0.1,0.1,0.2,0.1c0.1,0.1,0.2,0.1,0.3,0.1l0.1,0.1
			c0.2,0.1,0.3,0.2,0.5,0.2s0.4,0.1,0.5,0.1l0.2,0.1c0.1,0,0.3,0.1,0.5,0.1c0.1,0,0.1,0,0.1,0l0,0.2l0-0.2l0,0c0.1,0,0.1,0,0.2,0
			c0.1,0,0.1,0,0.2,0l0.3,0.1c0.2,0,0.5,0.1,0.6,0.1c0.2,0,0.5,0.1,0.7,0.1c0.1,0,0.1,0,0.2,0l0.5,0c0.1,0,0.1,0,0.2,0
			c0.2,0,0.3,0,0.5,0l0.2,0c0.1,0,0.3,0,0.5,0c0.3,0,0.7-0.1,1-0.2c0.6-0.1,1.2-0.3,1.8-0.5l0.1,0c0.1,0,0.1,0,0.2,0
			c0.1,0,0.2-0.1,0.3-0.1l0.2-0.1c0.1,0,0.2,0,0.2-0.1c0.1,0,0.1,0,0.1-0.1l0.1,0l0.2,0.2l-0.1-0.2l0.1,0c0.1,0,0.2-0.1,0.3-0.2
			l0.1-0.1l0.2,0.1l3.4,2.3c0.7,0.5,1.4,1.1,1.8,1.9c0.7,1,1,2.2,1,3.5l0,14.3H65.1z"/>
		<path class="st0" d="M79,70.9L79,70.9L79,70.9L78.9,71c0,0,0,0,0,0l0.2,0.2l0.1,0L79,70.9z M79,70.9L79,70.9L79,70.9L78.9,71
			c0,0,0,0,0,0l0.2,0.2l0.1,0L79,70.9z M79,70.9L79,70.9L79,70.9L78.9,71c0,0,0,0,0,0l0.2,0.2l0.1,0L79,70.9z M79,70.9L79,70.9
			L79,70.9L78.9,71c0,0,0,0,0,0l0.2,0.2l0.1,0L79,70.9z M79,70.9L79,70.9L79,70.9L78.9,71c0,0,0,0,0,0l0.2,0.2l0.1,0L79,70.9z
			 M79,70.9L79,70.9L79,70.9L78.9,71c0,0,0,0,0,0l0.2,0.2l0.1,0L79,70.9z M79,70.9L79,70.9L79,70.9L78.9,71c0,0,0,0,0,0l0.2,0.2
			l0.1,0L79,70.9z M79,70.9L79,70.9L79,70.9L78.9,71c0,0,0,0,0,0l0.2,0.2l0.1,0L79,70.9z M79,70.9L79,70.9L79,70.9L78.9,71
			c0,0,0,0,0,0l0.2,0.2l0.1,0L79,70.9z M79,70.9L79,70.9L79,70.9L78.9,71c0,0,0,0,0,0l0.2,0.2l0.1,0L79,70.9z M79,70.9L79,70.9
			L79,70.9L78.9,71c0,0,0,0,0,0l0.2,0.2l0.1,0L79,70.9z M79,70.9L79,70.9L79,70.9L78.9,71c0,0,0,0,0,0l0.2,0.2l0.1,0L79,70.9z
			 M79,70.9L79,70.9L79,70.9L78.9,71c0,0,0,0,0,0l0.2,0.2l0.1,0L79,70.9z M79,70.9L79,70.9L79,70.9L78.9,71c0,0,0,0,0,0l0.2,0.2
			l0.1,0L79,70.9z M79,70.9L79,70.9L79,70.9L78.9,71c0,0,0,0,0,0l0.2,0.2l0.1,0L79,70.9z M79,70.9L79,70.9L79,70.9L78.9,71
			c0,0,0,0,0,0l0.2,0.2l0.1,0L79,70.9z M79,70.9L79,70.9L79,70.9L78.9,71c0,0,0,0,0,0l0.2,0.2l0.1,0L79,70.9z"/>
	</g>
	<g>
		<path d="M85.4,11.5c-2.9-4-7.7-6.5-12.7-6.5c0,0,0,0,0,0H60.8c-1.8,0-3.5,0.3-5.2,0.9C54,6.5,52.4,7.4,51,8.5l-0.1,0.1l-0.2-0.1
			C48,6.3,44.5,5.1,41,5.1c0,0,0,0,0,0H29c-4.2,0-8.1,1.6-11.1,4.6c-3,3-4.6,6.9-4.6,11.1c0,5,2.4,9.8,6.5,12.7l-0.1,0.2h0.3V43
			c0,0.7,0.6,1.3,1.3,1.3c0.3,0,0.5-0.1,0.8-0.3l10.5-7.6H41c3.5,0,7-1.2,9.7-3.4l0.2-0.1L51,33c2.8,2.2,6.2,3.4,9.8,3.4
			c0,0,0,0,0,0h8.5l0.1,0l10.4,7.6c0.2,0.2,0.5,0.3,0.8,0.3c0.2,0,0.4,0,0.6-0.1c0.4-0.2,0.7-0.7,0.7-1.2v-9.5l0.1-0.1
			C89,28.3,90.5,18.5,85.4,11.5z M48.8,31.2c-2.2,1.7-5,2.6-7.8,2.6c0,0,0,0,0,0H32c-0.3,0-0.5,0.1-0.8,0.3l-8.7,6.3v-7.6
			c0-0.4-0.2-0.9-0.6-1.1c-2.9-1.9-4.9-4.8-5.7-8.2c-0.7-3.4-0.1-6.9,1.8-9.8c0.5-0.8,1.1-1.5,1.7-2.1c2.4-2.4,5.8-3.8,9.2-3.8
			c0,0,0,0,0,0H41c2.8,0,5.6,0.9,7.8,2.6l0.2,0.2l-0.2,0.2c-0.4,0.4-0.7,0.8-0.9,1.2c0,0.1-0.1,0.1-0.1,0.2l-0.1,0.1
			c-0.2,0.3-0.4,0.6-0.6,1c-0.1,0.2-0.2,0.3-0.2,0.5c-0.2,0.3-0.3,0.6-0.4,0.9c-0.1,0.2-0.1,0.4-0.2,0.5c-0.1,0.3-0.2,0.6-0.3,0.9
			c-0.1,0.2-0.1,0.4-0.2,0.6c-0.1,0.2-0.1,0.4-0.2,0.6l-0.1,0.3c0,0.2-0.1,0.3-0.1,0.5c-0.1,0.3-0.1,0.7-0.1,1l0,0.2
			c0,0.1,0,0.2,0,0.3c0,0.5-0.1,1-0.1,1.5c0,0.5,0,1,0.1,1.5c0,0.1,0,0.2,0,0.3l0,0.2c0,0.3,0.1,0.7,0.2,1c0,0.1,0.1,0.3,0.1,0.4
			l0,0.1c0.1,0.3,0.1,0.6,0.2,0.8c0,0.2,0.1,0.3,0.2,0.5l0,0.1c0.1,0.3,0.2,0.5,0.3,0.8c0.1,0.2,0.2,0.4,0.2,0.6
			c0.1,0.3,0.2,0.5,0.4,0.8c0.1,0.2,0.2,0.4,0.3,0.5c0.1,0.3,0.3,0.5,0.4,0.8l0.1,0.2c0.1,0.1,0.2,0.2,0.2,0.3
			c0.2,0.3,0.4,0.5,0.6,0.8l0.1,0.2c0.1,0.1,0.1,0.2,0.2,0.3l0.2,0.3L48.8,31.2z M79.8,31.7c-0.4,0.3-0.6,0.7-0.6,1.1v7.6l-8.7-6.3
			c-0.2-0.2-0.5-0.3-0.8-0.3h-8.9c-3.4,0-6.7-1.3-9.1-3.7c0,0-0.1-0.1-0.1-0.1c-2.4-2.4-3.8-5.8-3.8-9.2c0-0.4,0-0.9,0.1-1.3
			c0.7-6.7,6.3-11.7,13-11.7c0,0,0,0,0,0h11.9c0,0,0,0,0,0c7.2,0,13.1,5.8,13.1,13C85.8,25.2,83.6,29.3,79.8,31.7z"/>
	</g>
	<g>
		<path d="M77.5,21.3c0,0.7-0.6,1.3-1.3,1.3H57.4c-0.7,0-1.3-0.6-1.3-1.3c0-0.7,0.6-1.3,1.3-1.3h18.8C76.9,20,77.5,20.6,77.5,21.3z"
			/>
	</g>
	<g>
		<path d="M41.2,21.3c0,0.7-0.6,1.3-1.3,1.3H24.3c-0.7,0-1.3-0.6-1.3-1.3c0-0.7,0.6-1.3,1.3-1.3h15.6C40.6,20,41.2,20.6,41.2,21.3z"
			/>
	</g>
</g>
</svg>
