<svg height='100px' width='100px'  fill="#000000" xmlns="http://www.w3.org/2000/svg" xmlns:xlink="http://www.w3.org/1999/xlink" version="1.1" x="0px" y="0px" viewBox="0 0 100 100" style="enable-background:new 0 0 100 100;" xml:space="preserve"><path d="M81.4,62.9c0,3.8-13.5,6.9-30.1,6.9s-30.1-3.1-30.1-6.9l0-3.4c-1.7,0.9-2.6,1.9-2.6,2.9c0,0,0,12.5,0,12.9  c0,4.1,14.6,7.5,32.6,7.5s32.6-3.4,32.6-7.5c0-0.4,0-12.9,0-12.9c0-1-0.9-2-2.6-2.9L81.4,62.9z"></path><path d="M98.5,81.4c0-2.3-4.1-4.5-10.9-6.1c0,1.9,0,3.1,0,3.2c0,4.3-16.3,7.8-36.4,7.8c-20.1,0-36.4-3.5-36.4-7.8c0-0.1,0-3.4,0-3.5  c-7.6,1.7-12.3,4-12.3,6.4c0,1.1,1.4,0.9,1.4,3.3c0,2.4-1.4,3.2-1.4,4.2c0,5.3,21.5,9.7,48,9.7c26.5,0,48-4.3,48-9.7  c0-1.1-1.9-1.1-1.9-3.5C96.6,83,98.5,82.5,98.5,81.4z M51.2,96C36.9,96,6.7,93.2,6.7,88c0-1,1.1-1.2,1-2.9c-0.1-1.7-1-1.8-1-2.7  c0-2.1,3.4-2.6,4.2-0.7c2.2,4.7,16.8,8.6,40.4,8.6c17.1,0,31.5-1.9,38.3-7.6c3.6-3,5.3-0.5,3.7,2c-0.9,1.4-0.3,2.5,0.4,3.4  C96.6,92.3,65.6,96,51.2,96z"></path><path d="M23.3,59.9C23.3,59.9,23.3,59.9,23.3,59.9v-0.8c0,5.1,9.8,6.4,22.8,7.3c1.8,0.1,3.4-1.4,3.4-3.2v-14  c0-8.8-12.3-21.2-12.9-21.8C34,24.7,32.3,23,32.3,23c-3.1-3.2-9.8-1.8-15.1,3.2c-5.2,5-6.9,11.7-3.8,14.9c0,0,2.8,2.9,6.8,7.1  c0.9,0.9,3.1,4,3.1,6.1C23.3,55.1,23.3,59,23.3,59.9z M16.2,39.1c-2.3-2.4-1-7.3,2.8-11c3.8-3.7,8.8-4.7,11.1-2.4  c2.3,2.4,1,7.3-2.8,11C23.5,40.4,18.5,41.5,16.2,39.1z"></path><path d="M84.9,15.9c-5.2-5-12-6.4-15.1-3.2c0,0-17.1,13.1-17.1,26.2v23.9c0,1.8,1.6,3.4,3.4,3.2c12.7-0.9,22.4-2,22.8-7  c0-3.8,0-4.8,0-8.7c0-8.5,1-10.4,3.1-12.4c4.1-4.1,6.8-7.1,6.8-7.1C91.8,27.6,90.1,20.9,84.9,15.9z M85.9,28.7  c-2.3,2.4-7.3,1.3-11.1-2.4c-3.8-3.7-5.1-8.6-2.8-11s7.3-1.3,11.1,2.4C86.9,21.4,88.2,26.4,85.9,28.7z"></path><g><path d="M52.9,25.5c3.1-5.4,6.4-8.9,10.2-12.5c0-4.5-0.2-8.6-0.2-8.6c0-1.9-5.6-3.4-12.5-3.4c-6.9,0-12.5,1.5-12.5,3.4   c0,0-0.2,12.4,0,17.3c0,0.6,0.2,1.1,0.6,1.5c1.3,1.4,3.2,4,6.6,7.8c1.7,1.9,3.2,2.9,4.2,2.2C50.2,32.6,51,28.9,52.9,25.5z    M50.4,7.1c-5.1,0-9.2-1.1-9.2-2.5c0-1.4,4.1-2.5,9.2-2.5s9.2,1.1,9.2,2.5C59.6,6,55.5,7.1,50.4,7.1z"></path></g></svg>