<svg height='100px' width='100px'  fill="#000000" xmlns="http://www.w3.org/2000/svg" xmlns:xlink="http://www.w3.org/1999/xlink" version="1.1" x="0px" y="0px" viewBox="0 0 100 100" style="enable-background:new 0 0 100 100;" xml:space="preserve"><g><path d="M84.8261719,66.2128906h-5.7109375v-39.875c0-1.6113281-1.3105469-2.9228516-2.921875-2.9228516H65.6113281   c-0.3243408,0-0.6310425,0.0656128-0.9228516,0.1636353v-6.1392212c0-1.6113281-1.3105469-2.9228516-2.921875-2.9228516H51.1845703   c-0.3240356,0-0.6303711,0.0655518-0.921875,0.1633911v-2.7571411C50.2626953,10.3115234,48.9511719,9,47.3398438,9H36.7578125   c-1.6113281,0-2.921875,1.3115234-2.921875,2.9228516v11.6558228c-0.2918091-0.0980225-0.5985107-0.1636353-0.9228516-0.1636353   H22.3320313c-1.6113281,0-2.9228516,1.3115234-2.9228516,2.9228516v39.875h-4.2353516   c-0.9189453,0-1.6669922,0.7470703-1.6669922,1.6660156v7.1914063c0,0.9189453,0.7480469,1.6669922,1.6669922,1.6669922h3.9935913   L26.75,90.4833984C26.9267578,90.8017578,27.2617188,91,27.6259766,91h7.8691406   c0.1208496,0,0.2357178-0.0288086,0.3457031-0.0697021c0.0270996-0.0100708,0.0524902-0.0198975,0.0784302-0.0322266   c0.1027222-0.0484009,0.1992798-0.1083984,0.2803955-0.1889648c0.0041504-0.0041504,0.0066528-0.0094604,0.0107422-0.0136719   c0.0547485-0.0562134,0.1052246-0.1173706,0.1460571-0.1866455c0.0152588-0.0259399,0.0219727-0.0548096,0.034729-0.081665   c0.0126343-0.0264282,0.0234985-0.0518799,0.0338745-0.0795288c0.0414429-0.1110229,0.0684814-0.2255859,0.0690918-0.3425903   c0-0.00177,0.0009766-0.0032349,0.0009766-0.0050049V76.7373047h27.0097656V90c0,0.00177,0.0009766,0.0032349,0.0009766,0.0050049   c0.0006104,0.1170654,0.02771,0.2316895,0.0692139,0.3428345c0.0102539,0.0274048,0.0210571,0.0528564,0.0336304,0.0791016   c0.0128174,0.0269775,0.0195313,0.0558472,0.0348511,0.0818481c0.0407104,0.0690918,0.0911865,0.1300049,0.145752,0.1861572   c0.0042725,0.0043945,0.0068359,0.0100098,0.0111694,0.0142822c0.0811768,0.0805664,0.1777344,0.1405029,0.2803955,0.1889038   c0.0259399,0.0122681,0.0513306,0.0220947,0.0783691,0.0321655C64.2692261,90.9711914,64.3840332,91,64.5048828,91h7.8691406   c0.3642578,0,0.6992188-0.1982422,0.8759766-0.5166016l7.5825806-13.7460938h3.9935913   c0.9189453,0,1.6669922-0.7480469,1.6669922-1.6669922v-7.1914063   C86.4931641,66.9599609,85.7451172,66.2128906,84.8261719,66.2128906z M64.6884766,49.2548828v-3.9345703v-4.7949219v-3.9345703   V26.3378906c0-0.5087891,0.4140625-0.9228516,0.9228516-0.9228516h10.5820313c0.5087891,0,0.921875,0.4140625,0.921875,0.9228516   v39.875H64.6884766V49.2548828z M50.2626953,17.4394531c0-0.5087891,0.4130859-0.9228516,0.921875-0.9228516h10.5820313   c0.5087891,0,0.921875,0.4140625,0.921875,0.9228516v8.8984375v9.2529297H50.2626953V17.4394531z M50.2626953,37.5908203   h12.4257813v1.9345703H50.2626953V37.5908203z M50.2626953,41.5253906h12.4257813v2.7949219H50.2626953V41.5253906z    M50.2626953,46.3203125h12.4257813v1.9345703H50.2626953V46.3203125z M50.2626953,50.2548828h12.4257813v15.9580078h-8.1640625   v-2.5224609c0-0.5527344-0.4472656-1-1-1s-1,0.4472656-1,1v2.5224609h-2.2617188V50.2548828z M35.8359375,26.3378906V11.9228516   C35.8359375,11.4140625,36.2490234,11,36.7578125,11h10.5820313c0.5087891,0,0.9228516,0.4140625,0.9228516,0.9228516v5.5166016   v19.1513672v3.9345703v4.7949219v3.9345703v16.9580078H35.8359375V26.3378906z M21.4091797,26.3378906   c0-0.5087891,0.4140625-0.9228516,0.9228516-0.9228516h10.5810547c0.5087891,0,0.9228516,0.4140625,0.9228516,0.9228516v39.875   H21.4091797V26.3378906z M28.2167969,89l-6.7650146-12.2626953h5.5849609L33.8017578,89H28.2167969z M34.4951172,86.1157227   l-5.1732788-9.378418h5.1732788V86.1157227z M71.7832031,89h-5.5849609l6.7650146-12.2626953h5.5849609L71.7832031,89z    M65.5048828,86.1157227v-9.378418h5.1732788L65.5048828,86.1157227z M84.4931641,74.7373047h-4.2276611   c-0.0076294-0.0001831-0.0147095-0.0029297-0.0223389-0.0029297h-7.8691406h-7.8691406   c-0.005188,0-0.0093994,0.0028687-0.0145264,0.0029297H35.5096436c-0.005127-0.000061-0.0093384-0.0029297-0.0145264-0.0029297   h-7.8691406h-7.8691406c-0.0076294,0-0.0147095,0.0027466-0.0223389,0.0029297h-4.2276611v-2.2626953h21.296875   c0.5527344,0,1-0.4472656,1-1s-0.4472656-1-1-1h-21.296875v-2.2617188h4.9023438h14.4267578h14.4267578h14.4257813h14.4267578   h6.3779297V74.7373047z"></path><path d="M29.4257813,41.6181641h-3.6064453c-0.5527344,0-1,0.4472656-1,1s0.4472656,1,1,1h3.6064453c0.5527344,0,1-0.4472656,1-1   S29.9785156,41.6181641,29.4257813,41.6181641z"></path><path d="M29.4257813,46.3720703h-3.6064453c-0.5527344,0-1,0.4472656-1,1s0.4472656,1,1,1h3.6064453c0.5527344,0,1-0.4472656,1-1   S29.9785156,46.3720703,29.4257813,46.3720703z"></path><path d="M29.4257813,51.1259766h-3.6064453c-0.5527344,0-1,0.4472656-1,1s0.4472656,1,1,1h3.6064453c0.5527344,0,1-0.4472656,1-1   S29.9785156,51.1259766,29.4257813,51.1259766z"></path><path d="M72.7050781,41.6181641h-3.6064453c-0.5527344,0-1,0.4472656-1,1s0.4472656,1,1,1h3.6064453c0.5527344,0,1-0.4472656,1-1   S73.2578125,41.6181641,72.7050781,41.6181641z"></path><path d="M72.7050781,46.3720703h-3.6064453c-0.5527344,0-1,0.4472656-1,1s0.4472656,1,1,1h3.6064453c0.5527344,0,1-0.4472656,1-1   S73.2578125,46.3720703,72.7050781,46.3720703z"></path><path d="M72.7050781,51.1259766h-3.6064453c-0.5527344,0-1,0.4472656-1,1s0.4472656,1,1,1h3.6064453c0.5527344,0,1-0.4472656,1-1   S73.2578125,51.1259766,72.7050781,51.1259766z"></path><path d="M40.0820313,29.65625c-0.5527344,0-1,0.4472656-1,1v3.4423828c0,0.5527344,0.4472656,1,1,1s1-0.4472656,1-1V30.65625   C41.0820313,30.1035156,40.6347656,29.65625,40.0820313,29.65625z"></path><path d="M44.0166016,29.65625c-0.5527344,0-1,0.4472656-1,1v3.4423828c0,0.5527344,0.4472656,1,1,1s1-0.4472656,1-1V30.65625   C45.0166016,30.1035156,44.5693359,29.65625,44.0166016,29.65625z"></path><path d="M53.5244141,59.3613281c0.5527344,0,1-0.4472656,1-1v-1.3105469c0-0.5527344-0.4472656-1-1-1s-1,0.4472656-1,1v1.3105469   C52.5244141,58.9140625,52.9716797,59.3613281,53.5244141,59.3613281z"></path><path d="M44.0166016,70.4746094h-0.984375c-0.5527344,0-1,0.4472656-1,1s0.4472656,1,1,1h0.984375c0.5527344,0,1-0.4472656,1-1   S44.5693359,70.4746094,44.0166016,70.4746094z"></path></g></svg>