<?xml version="1.0" encoding="utf-8"?>
<!-- Generator: Adobe Illustrator 24.2.0, SVG Export Plug-In . SVG Version: 6.00 Build 0)  -->
<svg version="1.1" id="Layer_1" xmlns="http://www.w3.org/2000/svg" xmlns:xlink="http://www.w3.org/1999/xlink" x="0px" y="0px"
	 viewBox="0 0 100 100" style="enable-background:new 0 0 100 100;" xml:space="preserve">
<g>
	<g>
		<path d="M95.1,50c0,0.7-0.6,1.3-1.3,1.3h-9.4c-0.7,0-1.3-0.6-1.3-1.3s0.6-1.3,1.3-1.3h9.4C94.5,48.7,95.1,49.3,95.1,50z"/>
	</g>
	<g>
		<path d="M91.1,38.6l-8.1,4.7c-0.5,0.3-1.2,0.2-1.6-0.2c-0.2-0.3-0.4-0.6-0.4-0.9c0-0.5,0.3-0.9,0.7-1.1l8.1-4.7
			c0.2-0.1,0.4-0.2,0.7-0.2c0.4,0,0.9,0.2,1.1,0.7C91.9,37.5,91.7,38.3,91.1,38.6z"/>
	</g>
	<g>
		<path d="M82.4,29l-4.7,8.1c-0.2,0.4-0.7,0.7-1.1,0.7c-0.3,0-0.7-0.1-0.9-0.4c-0.2-0.3-0.4-0.6-0.4-0.9c0-0.2,0.1-0.5,0.2-0.7
			l4.7-8.1c0.2-0.3,0.5-0.5,0.8-0.6c0.1,0,0.2,0,0.3,0c0.2,0,0.5,0.1,0.7,0.2c0.3,0.2,0.5,0.5,0.6,0.8C82.6,28.3,82.6,28.7,82.4,29z
			"/>
	</g>
	<g>
		<path d="M91.5,63.2c-0.3,0.6-1.2,0.8-1.8,0.5L81.6,59c-0.3-0.2-0.5-0.5-0.6-0.8c-0.1-0.3,0-0.7,0.1-1c0.2-0.3,0.4-0.5,0.8-0.6
			c0.1,0,0.2,0,0.3,0c0.2,0,0.5,0.1,0.7,0.2l8.1,4.7c0.3,0.2,0.5,0.5,0.6,0.8C91.8,62.5,91.7,62.8,91.5,63.2z"/>
	</g>
	<g>
		<path d="M82.5,72c-0.1,0.3-0.3,0.6-0.6,0.8c-0.6,0.3-1.4,0.1-1.8-0.5l-4.7-8.1c-0.2-0.3-0.2-0.7-0.1-1c0.1-0.3,0.3-0.6,0.6-0.8
			c0.2-0.1,0.4-0.2,0.7-0.2c0.1,0,0.2,0,0.3,0c0.3,0.1,0.6,0.3,0.8,0.6l4.7,8.1C82.6,71.3,82.6,71.7,82.5,72z"/>
	</g>
	<g>
		<path d="M64.1,17.4c-1.6,0-3,1-4.3,3.1l-0.1,0.1L34,36.2H18.8c-7.6,0-13.8,6.2-13.8,13.8c0,5.9,3.8,11.2,9.4,13.1l0.1,0l0,0.1
			l8,24.1c0.9,2.8,3.5,4.6,6.4,4.6h0c3.7,0,6.8-3,6.8-6.8V64.8l24.1,14.7c1.2,2,2.7,3.1,4.3,3.1c6.7,0,9.1-17.5,9.1-32.6
			S70.8,17.4,64.1,17.4z M33.1,85.2c0,1.8-1.1,3.4-2.8,3.9c-0.4,0.1-0.9,0.2-1.3,0.2c-0.6,0-1.3-0.1-1.8-0.4c-1-0.5-1.7-1.3-2.1-2.4
			l-7.6-22.7l0.5,0c0.3,0,0.5,0,0.8,0h14.3V85.2z M33.1,61.2H18.8c-6.2,0-11.2-5-11.2-11.2s5-11.2,11.2-11.2h14.3V61.2z M35.7,61.8
			V38.2l0.1-0.1l22.1-13.4l-0.2,0.6C56,31.2,54.9,40.2,54.9,50s1,18.8,2.8,24.6l0.2,0.6L35.7,61.8z M58.1,42.2
			c3.7,0.9,6.2,4.1,6.2,7.8s-2.6,7-6.2,7.8l-0.3,0.1l0-0.3c-0.1-2.5-0.2-5-0.2-7.6s0.1-5.2,0.2-7.6l0-0.3L58.1,42.2z M64.1,79.9
			c-2.2,0-5-6.6-6.1-19.2l0-0.2l0.2,0c5.1-0.9,8.7-5.3,8.7-10.5s-3.7-9.6-8.7-10.5l-0.2,0l0-0.2c1.1-12.6,3.9-19.2,6.1-19.2
			c2.7,0,6.5,10.4,6.5,29.9S66.8,79.9,64.1,79.9z"/>
	</g>
</g>
</svg>
