<?xml version="1.0" encoding="utf-8"?>
<!-- Generator: Adobe Illustrator 24.2.0, SVG Export Plug-In . SVG Version: 6.00 Build 0)  -->
<svg version="1.1" id="Layer_1" xmlns="http://www.w3.org/2000/svg" xmlns:xlink="http://www.w3.org/1999/xlink" x="0px" y="0px"
	 viewBox="0 0 100 100" style="enable-background:new 0 0 100 100;" xml:space="preserve">
<g>
	<g>
		<path d="M29.2,71.7H16.7c-0.7,0-1.2,0.5-1.2,1.2v12.5c0,0.7,0.5,1.2,1.2,1.2h12.5c0.7,0,1.2-0.5,1.2-1.2V72.9
			C30.4,72.3,29.8,71.7,29.2,71.7z M28,84.2H17.9V74.1H28V84.2z"/>
	</g>
	<g>
		<path d="M29.2,48.8H16.7c-0.7,0-1.2,0.5-1.2,1.2v12.5c0,0.7,0.5,1.2,1.2,1.2h12.5c0.7,0,1.2-0.5,1.2-1.2V50
			C30.4,49.3,29.8,48.8,29.2,48.8z M28,61.3H17.9V51.2H28V61.3z"/>
	</g>
	<g>
		<path d="M67.9,37.5c0,0.7-0.5,1.2-1.2,1.2H39.6c-0.7,0-1.2-0.5-1.2-1.2s0.5-1.2,1.2-1.2h27.1C67.3,36.3,67.9,36.8,67.9,37.5z"/>
	</g>
	<g>
		<path d="M67.9,29.2c0,0.7-0.5,1.2-1.2,1.2H39.6c-0.7,0-1.2-0.5-1.2-1.2c0-0.7,0.5-1.2,1.2-1.2h27.1C67.3,28,67.9,28.5,67.9,29.2z"
			/>
	</g>
	<g>
		<path d="M57.5,60.4c0,0.7-0.5,1.2-1.2,1.2H39.6c-0.7,0-1.2-0.5-1.2-1.2c0-0.7,0.5-1.2,1.2-1.2h16.7C56.9,59.2,57.5,59.8,57.5,60.4
			z"/>
	</g>
	<g>
		<path d="M57.5,52.1c0,0.7-0.5,1.2-1.2,1.2H39.6c-0.7,0-1.2-0.5-1.2-1.2c0-0.7,0.5-1.2,1.2-1.2h16.7C56.9,50.9,57.5,51.4,57.5,52.1
			z"/>
	</g>
	<g>
		<path d="M51.2,83.3c0,0.7-0.5,1.2-1.2,1.2H39.6c-0.7,0-1.2-0.5-1.2-1.2c0-0.7,0.5-1.2,1.2-1.2H50C50.7,82.1,51.2,82.7,51.2,83.3z"
			/>
	</g>
	<g>
		<path d="M51.2,75c0,0.7-0.5,1.2-1.2,1.2H39.6c-0.7,0-1.2-0.5-1.2-1.2s0.5-1.2,1.2-1.2H50C50.7,73.8,51.2,74.3,51.2,75z"/>
	</g>
	<g>
		<path d="M30.4,29.2c0,0.3-0.1,0.6-0.3,0.9c-1.8,1.7-3.2,3.2-4.3,4.4c-1.3,1.3-2.3,2.4-3.1,3.1c-0.8,0.7-1.4,1.1-1.8,1.1
			c-0.6,0-1.5-0.9-2.9-2.4c-0.6-0.6-1.3-1.3-2.1-2.2c-0.2-0.2-0.4-0.5-0.4-0.9c0-0.3,0.1-0.6,0.4-0.9c0.2-0.2,0.5-0.3,0.9-0.3
			c0.3,0,0.6,0.1,0.9,0.3l3.3,3.3l7.5-7.5c0.5-0.5,1.2-0.5,1.7,0C30.3,28.5,30.4,28.8,30.4,29.2z"/>
	</g>
	<g>
		<path d="M91.9,28.2l-0.2-0.1c-3.1-1.8-7-0.7-8.8,2.3l-4.7,8.2v-3.3c0-4.1,0-7.3,0-9.8c0-6.6,0-9.1-0.1-9.5c0,0,0-0.1-0.1-0.1
			L78,15.9c-3.2-3.8-5.6-6.6-7.4-8.7c-3.9-4.6-5.1-6-5.3-6.2c0,0-0.1,0-0.1,0c-0.4-0.2-1.2-0.2-6.7-0.2c-2.3,0-5.3,0-9.4,0
			c-8.6,0-22,0.1-42.8,0.1C5.6,0.9,5,1.4,5,2.1v95.8c0,0.7,0.5,1.2,1.2,1.2h70.8c0.7,0,1.2-0.5,1.2-1.2V64.3l0.1-0.2
			c6-10.3,9.9-17.1,15.7-27.1C95.9,34,95,30.1,91.9,28.2z M65.8,5.3l8.7,10.1h-8.7V5.3z M7.5,96.7V3.3h55.9v13.4
			c0,0.7,0.5,1.2,1.2,1.2h11.3v24.9L59.5,71.1c-0.2,0.3-0.2,0.7-0.4,4.8c-0.1,1.7-0.2,4.1-0.4,7.3c0,0.7,0.5,1.2,1.1,1.3
			c0.4,0,0.4,0,3.6-2.1c1.5-1,3.7-2.4,6.9-4.5c0.2-0.2,0.4-0.3,2-3.3l3.5-6.2l0.1,28.3H7.5z M62.6,72.5c2,0.3,3.8,1.3,5.1,3l0.6,0.8
			L61.2,81l0.5-8.6L62.6,72.5z M69.8,74.1L69,73.2c-1.4-1.4-3.1-2.4-5-2.9l-1.1-0.3l17.9-30.9l6.9,4L69.8,74.1z M92.1,35.6L92,35.7
			L89,41l-6.8-4l3.1-5.4c0.7-0.8,1.6-1.3,2.7-1.4c1.1-0.1,2.1,0.2,2.9,0.9C92.2,32.2,92.7,34,92.1,35.6z"/>
	</g>
</g>
</svg>
