<?xml version="1.0" encoding="utf-8"?>
<!-- Generator: Adobe Illustrator 24.2.0, SVG Export Plug-In . SVG Version: 6.00 Build 0)  -->
<svg version="1.1" id="Layer_1" xmlns="http://www.w3.org/2000/svg" xmlns:xlink="http://www.w3.org/1999/xlink" x="0px" y="0px"
	 viewBox="0 0 100 100" style="enable-background:new 0 0 100 100;" xml:space="preserve">
<g>
	<g>
		<path d="M35,66H24.9c-0.5,0-1,0.4-1,1V77c0,0.5,0.4,1,1,1H35c0.5,0,1-0.4,1-1V67C35.9,66.4,35.5,66,35,66z M34,76.1h-8.1v-8.1H34
			V76.1z"/>
	</g>
	<g>
		<path d="M35,47.5H24.9c-0.5,0-1,0.4-1,1v10.1c0,0.5,0.4,1,1,1H35c0.5,0,1-0.4,1-1V48.5C35.9,47.9,35.5,47.5,35,47.5z M34,57.6
			h-8.1v-8.1H34V57.6z"/>
	</g>
	<g>
		<path d="M66.2,38.4c0,0.5-0.4,1-1,1H43.4c-0.5,0-1-0.4-1-1s0.4-1,1-1h21.9C65.8,37.4,66.2,37.8,66.2,38.4z"/>
	</g>
	<g>
		<path d="M66.2,31.7c0,0.5-0.4,1-1,1H43.4c-0.5,0-1-0.4-1-1c0-0.5,0.4-1,1-1h21.9C65.8,30.7,66.2,31.1,66.2,31.7z"/>
	</g>
	<g>
		<path d="M57.8,56.9c0,0.5-0.4,1-1,1H43.4c-0.5,0-1-0.4-1-1c0-0.5,0.4-1,1-1h13.5C57.4,55.9,57.8,56.3,57.8,56.9z"/>
	</g>
	<g>
		<path d="M57.8,50.1c0,0.5-0.4,1-1,1H43.4c-0.5,0-1-0.4-1-1c0-0.5,0.4-1,1-1h13.5C57.4,49.2,57.8,49.6,57.8,50.1z"/>
	</g>
	<g>
		<path d="M52.7,75.4c0,0.5-0.4,1-1,1h-8.4c-0.5,0-1-0.4-1-1c0-0.5,0.4-1,1-1h8.4C52.3,74.4,52.7,74.8,52.7,75.4z"/>
	</g>
	<g>
		<path d="M52.7,68.6c0,0.5-0.4,1-1,1h-8.4c-0.5,0-1-0.4-1-1c0-0.5,0.4-1,1-1h8.4C52.3,67.7,52.7,68.1,52.7,68.6z"/>
	</g>
	<g>
		<path d="M35.9,31.7c0,0.3-0.1,0.5-0.3,0.7c-1.4,1.4-2.5,2.6-3.5,3.6c-1,1.1-1.9,1.9-2.5,2.5c-0.7,0.6-1.1,0.9-1.5,0.9
			c-0.5,0-1.2-0.8-2.3-1.9c-0.5-0.5-1-1.1-1.7-1.7c-0.2-0.2-0.3-0.4-0.3-0.7c0-0.3,0.1-0.5,0.3-0.7c0.2-0.2,0.4-0.3,0.7-0.3
			c0.3,0,0.5,0.1,0.7,0.3l2.7,2.7l6-6c0.4-0.4,1-0.4,1.4,0C35.8,31.1,35.9,31.4,35.9,31.7z"/>
	</g>
	<g>
		<path d="M85.6,30.9l-0.1-0.1c-2.5-1.4-5.6-0.6-7.1,1.9l-3.8,6.6v-2.7c0-3.3,0-5.9,0-7.9c0-5.4,0-7.4-0.1-7.6c0,0,0,0-0.1-0.1
			L74.4,21c-2.6-3-4.5-5.3-6-7c-3.2-3.7-4.1-4.8-4.3-5c0,0,0,0-0.1,0c-0.3-0.2-1-0.2-5.4-0.2c-1.8,0-4.3,0-7.6,0
			c-7,0-17.8,0.1-34.5,0.1c-0.5,0-1,0.4-1,1v77.3c0,0.5,0.4,1,1,1h57.1c0.5,0,1-0.4,1-1V60l0.1-0.2c4.8-8.3,8-13.8,12.7-21.9
			C88.8,35.6,88,32.4,85.6,30.9z M64.5,12.4l7,8.2h-7V12.4z M17.4,86.1V10.8h45.1v10.8c0,0.5,0.4,1,1,1h9.1v20.1L59.5,65.5
			c-0.1,0.2-0.2,0.6-0.3,3.9c-0.1,1.4-0.2,3.3-0.3,5.9c0,0.5,0.4,1,0.9,1c0.3,0,0.3,0,2.9-1.7c1.2-0.8,3-2,5.5-3.6
			c0.2-0.1,0.3-0.3,1.6-2.7l2.8-5l0.1,22.9H17.4z M62,66.7c1.6,0.2,3.1,1.1,4.1,2.4l0.5,0.6l-5.8,3.8l0.4-6.9L62,66.7z M67.7,67.9
			l-0.7-0.7c-1.1-1.1-2.5-1.9-4-2.3l-0.9-0.2l14.5-25l5.6,3.2L67.7,67.9z M85.7,36.8l0,0.1l-2.5,4.3l-5.5-3.2l2.5-4.4
			c0.5-0.7,1.3-1.1,2.2-1.1c0.9-0.1,1.7,0.2,2.4,0.7C85.8,34.1,86.2,35.5,85.7,36.8z"/>
	</g>
</g>
</svg>
