<svg height='100px' width='100px'  fill="#000000" xmlns="http://www.w3.org/2000/svg" xmlns:xlink="http://www.w3.org/1999/xlink" version="1.1" x="0px" y="0px" viewBox="0 0 100 100" enable-background="new 0 0 100 100" xml:space="preserve"><path d="M90.781,42.898C91.083,42.01,91.25,41.033,91.25,40c0-4.206-2.745-7.5-6.25-7.5H15c-4.03,0-7.188,3.843-7.188,8.75  c0,0.793,0.09,1.554,0.246,2.279C6.216,44.82,5,47.205,5,50c0,2.795,1.216,5.181,3.058,6.471c-0.155,0.726-0.246,1.486-0.246,2.279  c0,4.906,3.157,8.75,7.188,8.75h70c3.505,0,6.25-3.294,6.25-7.5c0-1.033-0.167-2.01-0.469-2.898C93.258,56.112,95,53.348,95,50  C95,46.652,93.258,43.889,90.781,42.898z M15,62.5c-1.032,0-2.188-1.604-2.188-3.75c0-0.945,0.231-1.773,0.57-2.417  c6.798,0.442,18.731,2.711,30.327,4.92c2.224,0.423,4.424,0.842,6.582,1.247H15z M88.75,53.75c-1.355,0-2.5-1.718-2.5-3.75  c0-2.033,1.145-3.75,2.5-3.75s2.5,1.717,2.5,3.75C91.25,52.032,90.105,53.75,88.75,53.75z M87.5,60c0,2.032-1.145,3.75-2.5,3.75  s-2.5-1.718-2.5-3.75s1.145-3.75,2.5-3.75S87.5,57.968,87.5,60z M10,50c0-2.033,1.145-3.75,2.5-3.75c6.145,0,18.557,2.542,30.56,5  c12.407,2.541,24.124,4.938,30.453,4.995C72.88,57.292,72.5,58.59,72.5,60c0,1.348,0.347,2.595,0.93,3.617  c-6.793-0.545-18.182-2.712-29.253-4.82c-12.045-2.293-24.469-4.659-31.351-5.004c-0.104-0.028-0.213-0.043-0.326-0.043  C11.145,53.75,10,52.032,10,50z M77.5,36.25c1.355,0,2.5,1.717,2.5,3.75s-1.145,3.75-2.5,3.75S75,42.033,75,40  S76.145,36.25,77.5,36.25z M71.25,50c0-2.033,1.145-3.75,2.5-3.75s2.5,1.717,2.5,3.75c0,2.032-1.145,3.75-2.5,3.75  S71.25,52.032,71.25,50z M81.25,53.75c-1.355,0-2.5-1.718-2.5-3.75c0-2.033,1.145-3.75,2.5-3.75s2.5,1.717,2.5,3.75  C83.75,52.032,82.605,53.75,81.25,53.75z M75,60c0-2.032,1.145-3.75,2.5-3.75S80,57.968,80,60s-1.145,3.75-2.5,3.75S75,62.032,75,60  z M85,43.75c-1.355,0-2.5-1.717-2.5-3.75s1.145-3.75,2.5-3.75s2.5,1.717,2.5,3.75S86.355,43.75,85,43.75z M73.506,43.745  c-6.092-0.055-17.589-2.224-28.72-4.326c-3.465-0.654-6.964-1.315-10.339-1.919H72.92c-0.269,0.766-0.42,1.611-0.42,2.5  C72.5,41.406,72.878,42.7,73.506,43.745z M15,37.5c6.154,0,17.933,2.224,29.322,4.375c9.756,1.842,19.064,3.599,25.556,4.175  C69.174,47.128,68.75,48.503,68.75,50c0,1.289,0.314,2.489,0.852,3.485c-6.609-0.706-16.454-2.721-26.04-4.684  c-11.567-2.369-23.495-4.809-30.125-5.029c-0.37-0.656-0.624-1.526-0.624-2.522C12.813,39.104,13.968,37.5,15,37.5z"></path></svg>